<?xml version="1.0" standalone="no"?>
<!DOCTYPE svg PUBLIC "-//W3C//DTD SVG 20010904//EN"
 "http://www.w3.org/TR/2001/REC-SVG-20010904/DTD/svg10.dtd">
<svg version="1.0" xmlns="http://www.w3.org/2000/svg"
 width="279.000000pt" height="160.000000pt" viewBox="0 0 279.000000 160.000000"
 preserveAspectRatio="xMidYMid meet">

<g transform="translate(0.000000,160.000000) scale(0.100000,-0.100000)"
fill="#000000" stroke="none">
<path d="M1063 1161 c-51 -24 -73 -63 -73 -131 0 -59 20 -100 60 -124 37 -21
108 -21 132 1 17 15 18 15 18 0 0 -12 8 -17 25 -17 26 0 26 1 23 73 l-3 72
-57 3 c-53 3 -58 1 -58 -18 0 -16 6 -20 29 -20 38 0 48 -16 25 -41 -19 -21
-73 -26 -104 -9 -29 15 -44 73 -30 115 14 41 35 55 84 55 27 0 40 -6 52 -25
20 -30 64 -35 64 -6 0 30 -38 70 -78 81 -50 13 -60 13 -109 -9z"/>
<path d="M1916 1159 c-28 -22 -36 -75 -15 -96 7 -7 3 -18 -15 -36 -47 -47 -27
-118 39 -136 36 -10 71 -5 93 12 9 7 16 7 24 -1 7 -7 25 -12 42 -12 l29 0 -21
23 c-27 29 -28 43 -2 59 20 13 29 68 11 68 -5 0 -23 -12 -41 -26 -30 -26 -31
-26 -51 -8 -20 18 -20 18 6 41 50 47 18 133 -50 133 -12 0 -34 -9 -49 -21z
m74 -53 c0 -24 -23 -41 -41 -30 -5 3 -9 16 -9 30 0 19 5 24 25 24 20 0 25 -5
25 -24z m0 -153 c0 -10 -10 -13 -32 -11 -36 3 -49 28 -27 54 10 13 15 12 36
-7 12 -13 23 -29 23 -36z"/>
<path d="M680 1030 l0 -140 95 0 c95 0 95 0 95 25 0 24 -2 25 -65 25 l-65 0 0
115 0 115 -30 0 -30 0 0 -140z"/>
<path d="M890 1030 l0 -140 30 0 30 0 0 140 0 140 -30 0 -30 0 0 -140z"/>
<path d="M1300 1030 l0 -140 30 0 30 0 0 60 0 61 58 -3 57 -3 3 -57 c3 -57 4
-58 32 -58 l30 0 0 140 0 140 -30 0 c-30 0 -30 -1 -30 -55 l0 -55 -60 0 -60 0
0 55 c0 54 0 55 -30 55 l-30 0 0 -140z"/>
<path d="M1560 1145 c0 -22 4 -25 40 -25 l40 0 0 -115 0 -115 30 0 30 0 0 115
0 115 45 0 c41 0 45 2 45 25 l0 25 -115 0 -115 0 0 -25z"/>
<path d="M980 790 c-8 -5 -24 -10 -36 -10 -18 0 -25 -15 -52 -108 -18 -59 -32
-109 -32 -112 0 -3 15 -5 33 -6 17 0 50 -8 72 -18 l40 -17 -27 23 c-74 64 -77
163 -7 229 32 30 35 36 9 19z"/>
<path d="M1215 790 c-5 -8 -6 -32 -2 -135 0 -17 -7 -46 -16 -64 -11 -23 -12
-30 -3 -22 7 6 20 9 28 6 10 -4 17 1 20 12 4 14 3 117 -1 201 -1 14 -17 16
-26 2z"/>
<path d="M2020 770 l0 -30 -70 0 -70 0 0 -30 0 -30 75 0 c43 0 75 -4 75 -10 0
-5 5 -10 10 -10 6 0 10 30 10 70 0 56 -3 70 -15 70 -10 0 -15 -10 -15 -30z"/>
<path d="M1791 756 c-8 -10 -10 -32 -6 -64 7 -57 -15 -124 -48 -147 -21 -15
-21 -15 5 -15 15 0 38 -4 52 -10 l26 -9 -7 127 c-3 70 -7 128 -8 130 -1 1 -8
-4 -14 -12z"/>
<path d="M1005 708 c-30 -35 -29 -79 3 -110 9 -10 31 -20 48 -24 44 -9 94 35
94 82 0 80 -93 114 -145 52z"/>
<path d="M1609 703 c-1 -21 -2 -58 -3 -83 l-1 -45 34 2 c36 1 65 24 76 60 5
17 3 22 -7 18 -8 -3 -22 3 -33 14 -15 17 -16 23 -5 37 12 13 11 17 -1 25 -8 5
-24 9 -36 9 -20 0 -23 -6 -24 -37z"/>
<path d="M2120 691 c0 -39 11 -53 25 -30 4 5 18 14 32 20 38 14 26 43 -20 47
l-37 3 0 -40z"/>
<path d="M1311 625 c1 -46 3 -61 8 -45 5 17 14 25 29 24 21 -1 22 0 6 25 -46
71 -44 71 -43 -4z"/>
<path d="M1401 668 c17 -34 19 -34 19 -5 0 18 -5 27 -15 27 -13 0 -14 -4 -4
-22z"/>
<path d="M791 648 c0 -7 4 -22 9 -33 7 -16 9 -17 9 -3 1 9 4 23 7 32 4 11 1
16 -10 16 -9 0 -16 -6 -15 -12z"/>
<path d="M1522 628 c-10 -27 -14 -30 -22 -18 -7 11 -10 3 -10 -30 0 -29 3 -40
9 -31 7 10 12 8 25 -10 15 -23 16 -21 16 49 0 39 -1 72 -3 72 -1 0 -8 -15 -15
-32z"/>
<path d="M624 634 c3 -9 6 -23 7 -32 0 -12 3 -10 10 6 10 25 5 42 -13 42 -5 0
-7 -7 -4 -16z"/>
<path d="M710 643 c0 -5 8 -17 17 -28 14 -18 15 -18 9 -2 -3 10 -6 23 -6 28 0
5 -4 9 -10 9 -5 0 -10 -3 -10 -7z"/>
<path d="M2040 641 c0 -17 -60 -30 -110 -24 l-50 6 0 -31 c0 -34 13 -42 70
-42 53 0 70 -8 70 -35 0 -13 7 -25 15 -29 13 -4 15 8 15 79 0 47 -2 85 -5 85
-3 0 -5 -4 -5 -9z"/>
<path d="M2121 548 c0 -28 2 -30 9 -13 12 28 12 45 0 45 -5 0 -10 -15 -9 -32z"/>
<path d="M1598 513 c6 -2 18 -2 25 0 6 3 1 5 -13 5 -14 0 -19 -2 -12 -5z"/>
<path d="M2337 460 c3 -11 7 -20 9 -20 2 0 4 9 4 20 0 11 -4 20 -9 20 -5 0 -7
-9 -4 -20z"/>
<path d="M2360 457 c0 -7 11 -13 25 -13 14 0 25 6 25 13 0 17 -17 17 -23 1 -4
-10 -6 -10 -6 0 -1 16 -21 16 -21 -1z"/>
</g>
</svg>
